<svg width="30" height="30" viewBox="0 0 30 30" fill="none" xmlns="http://www.w3.org/2000/svg">
<path d="M15 0.375C6.93586 0.375 0.375 6.93586 0.375 15C0.375 23.0641 6.93586 29.625 15 29.625C23.0641 29.625 29.625 23.0641 29.625 15C29.625 6.93586 23.0641 0.375 15 0.375ZM15.1406 7.125C16.1419 7.125 17.1207 7.42191 17.9532 7.97818C18.7857 8.53446 19.4346 9.32511 19.8178 10.2502C20.2009 11.1752 20.3012 12.1931 20.1059 13.1751C19.9105 14.1572 19.4284 15.0592 18.7204 15.7672C18.0124 16.4752 17.1103 16.9574 16.1283 17.1527C15.1462 17.3481 14.1283 17.2478 13.2033 16.8646C12.2782 16.4815 11.4876 15.8326 10.9313 15.0001C10.375 14.1676 10.0781 13.1888 10.0781 12.1875C10.0781 10.8448 10.6115 9.55718 11.5609 8.60777C12.5103 7.65837 13.798 7.125 15.1406 7.125ZM15 27.375C13.2931 27.3757 11.6047 27.0224 10.0413 26.3374C8.4779 25.6524 7.07358 24.6506 5.91703 23.3953C6.53859 20.1764 12.1214 19.5 15 19.5C17.8786 19.5 23.4614 20.1764 24.083 23.3946C22.9266 24.6501 21.5223 25.6521 19.9589 26.3373C18.3955 27.0224 16.7069 27.3757 15 27.375Z" fill="white"/>
</svg>
